# xmcd
#
# Track frame offsets:
#	150
#	21223
#	37725
#	59176
#	77327
#	94125
#	114601
#	132303
#	148502
#	165829
#	187952
#	206251
#	230477
#	239851
#
# Disc length: 3535 seconds
#
# Revision: 0
# Processed by: cddbd v1.5.2PL0 Copyright (c) Steve Scherf et al.
# Submitted via: dBpowerAMP V4.0
#
DISCID=b70dcd0e
DTITLE=Geoff Whitehorn - Geoff Who? 2002
DYEAR=2002
DGENRE=Blues
TTITLE0=Shackuhacki Boy
TTITLE1=Ninetyonogy
TTITLE2=Escape From New York
TTITLE3=The Doodle
TTITLE4=S.T.D.
TTITLE5=Beef Or Mutton
TTITLE6=Without Annette
TTITLE7=Latin Echoes
TTITLE8=Marvid
TTITLE9=Crusadin'
TTITLE10=E.J. Blues
TTITLE11=Mercy, Mercy, Mercy
TTITLE12=Wanna Buy A Synth? Boy
TTITLE13=Eightyonavee
EXTD=Geoff Whitehorn Re-Issue
EXTT0=
EXTT1=
EXTT2=
EXTT3=
EXTT4=
EXTT5=
EXTT6=
EXTT7=
EXTT8=
EXTT9=
EXTT10=
EXTT11=
EXTT12=
EXTT13=
PLAYORDER=
